<svg xmlns="http://www.w3.org/2000/svg" viewBox="0 0 502.033 502.033" style="enable-background:new 0 0 502.033 502.033" xml:space="preserve">
  <path style="fill:#50a5dc" d="m382.124 222.176 41.36 71.626c5.601 9.699 19.601 9.699 25.202 0l41.36-71.626c5.601-9.701-1.399-21.827-12.601-21.827h-82.719c-11.203 0-18.204 12.127-12.602 21.827z"/>
  <path style="fill:#c7ebff" d="m119.909 279.857-41.36-71.626c-5.601-9.699-19.601-9.699-25.202 0l-41.36 71.626c-5.601 9.701 1.399 21.827 12.601 21.827h82.719c11.203 0 18.204-12.127 12.602-21.827z"/>
  <path d="M10.016 147.547h36.711c5.523 0 10-4.478 10-10s-4.477-10-10-10H10.016c-5.523 0-10 4.478-10 10s4.478 10 10 10zm447.329 151.256 41.36-71.626c4.438-7.687 4.438-16.864.001-24.552-4.438-7.687-12.386-12.275-21.262-12.275h-31.36v-52.803c0-5.522-4.477-10-10-10H92.337c-5.523 0-10 4.478-10 10s4.477 10 10 10h333.747v42.803h-31.36c-8.876 0-16.824 4.589-21.262 12.275-4.438 7.688-4.438 16.865.001 24.552v.001l41.359 71.624c4.438 7.687 12.387 12.275 21.262 12.275s16.824-4.589 21.261-12.274zm-21.261-7.726c-.981 0-2.798-.296-3.941-2.276l-41.359-71.625c-1.143-1.98-.491-3.702 0-4.551.491-.85 1.655-2.275 3.941-2.275h82.72c2.286 0 3.45 1.426 3.941 2.275s1.143 2.571 0 4.551l-41.36 71.626c-1.144 1.979-2.961 2.275-3.942 2.275zm-22.249 63.409H75.949v-42.803h31.36c8.876 0 16.824-4.589 21.262-12.275 4.438-7.688 4.438-16.865-.001-24.552v-.001l-41.359-71.624c-4.438-7.687-12.387-12.275-21.262-12.275s-16.823 4.589-21.26 12.274l-41.36 71.626c-4.438 7.687-4.438 16.864-.001 24.552 4.438 7.687 12.386 12.275 21.262 12.275h31.36v52.803c0 5.522 4.477 10 10 10h347.886c5.523 0 10-4.478 10-10s-4.478-10-10.001-10zM20.648 289.408c-.491-.85-1.143-2.571 0-4.551l41.36-71.626c1.143-1.979 2.959-2.275 3.94-2.275s2.798.296 3.941 2.276l41.359 71.624c1.144 1.98.491 3.702 0 4.552s-1.655 2.275-3.941 2.275H24.589c-2.286 0-3.45-1.425-3.941-2.275zm471.368 65.078h-33.683c-5.523 0-10 4.478-10 10s4.477 10 10 10h33.683c5.523 0 10-4.478 10-10s-4.477-10-10-10z"/>
</svg>
